<svg xmlns="http://www.w3.org/2000/svg" width="26" height="22" fill="none" viewBox="0 0 26 22"><path fill="#F5F5F5" d="M25.3334 3.26492C23.7818 3.33746 23.8156 3.33154 23.6403 3.34643L24.5592 0.684385C24.5592 0.684385 21.6908 1.75474 20.9636 1.94621C19.0538 0.205045 16.2151 0.128114 14.1857 1.39337C12.5238 2.42975 11.6317 4.20947 11.9293 6.28967C8.69482 5.83438 5.96961 4.27915 3.81802 1.65738L3.13752 0.828321L2.62902 1.77555C1.98635 2.97247 1.77294 4.341 2.02794 5.62897C2.13257 6.15738 2.31041 6.66134 2.55676 7.13324L1.97299 6.90378L1.90373 7.89319C1.83354 8.89826 2.16344 10.0715 2.78635 11.0313C2.96175 11.3016 3.18758 11.5985 3.47382 11.8913L3.17214 11.8444L3.54025 12.9781C4.02409 14.4677 5.02903 15.6201 6.3332 16.2607C5.03073 16.8214 3.97855 17.1791 2.24906 17.7562L0.666748 18.2839L2.12825 19.0944C2.68548 19.4035 4.65453 20.4356 6.60006 20.7453C10.9247 21.4333 15.7938 20.873 19.0717 17.8784C21.8327 15.3561 22.7386 11.7682 22.5504 8.03446C22.522 7.46921 22.6746 6.92974 22.9803 6.51569C23.5925 5.68663 25.3297 3.27045 25.3334 3.26492ZM21.8246 5.63756C21.317 6.32498 21.0628 7.20291 21.1083 8.10929C21.2982 11.8755 20.288 14.7962 18.1055 16.7899C15.5561 19.119 11.4439 20.0332 6.82382 19.2981C5.98712 19.165 5.12238 18.867 4.40668 18.5694C5.8567 18.0634 6.97644 17.6123 8.78477 16.7441L11.3092 15.5321L8.52206 15.3511C7.18703 15.2645 6.07538 14.6082 5.39205 13.5426C5.75489 13.5212 6.10474 13.4616 6.45308 13.3631L9.11129 12.6121L6.43087 11.9463C5.1284 11.6227 4.38598 10.8322 3.99247 10.2259C3.73409 9.82754 3.56528 9.41941 3.46403 9.04315C3.73277 9.11626 4.04611 9.16838 4.5514 9.21916L7.03233 9.46808L5.06667 7.91266C3.65034 6.7921 3.08275 5.10859 3.49885 3.49017C7.91909 8.14078 13.109 7.79125 13.6315 7.91419C13.5165 6.78122 13.5135 6.77855 13.4834 6.67069C12.8143 4.2717 14.2805 3.0536 14.9418 2.64126C16.3232 1.78013 18.5158 1.65032 20.0345 3.06906C20.3625 3.37526 20.8061 3.49571 21.2212 3.3911C21.5939 3.29718 21.8997 3.19772 22.1991 3.08948L21.5758 4.89498L22.3715 4.89555C22.2213 5.09981 22.0412 5.34435 21.8246 5.63756Z"/></svg>