<svg width="22" height="23" viewBox="0 0 22 23" fill="none" xmlns="http://www.w3.org/2000/svg">
<path d="M10.9283 21.8242C16.4617 21.8242 20.9474 17.3022 20.9474 11.724C20.9474 6.14577 16.4617 1.62375 10.9283 1.62375C5.39489 1.62375 0.90918 6.14577 0.90918 11.724C0.90918 17.3022 5.39489 21.8242 10.9283 21.8242Z" stroke="#212121" stroke-width="1.3"/>
<path fill-rule="evenodd" clip-rule="evenodd" d="M4.36765 11.5758C4.33211 13.3137 5.51944 14.9721 7.15274 15.513C8.6912 16.0341 10.5828 15.6442 11.6065 14.316C12.3539 13.3853 12.5238 12.1446 12.4429 10.9854C11.1253 10.9735 9.80781 10.9775 8.49224 10.9795C8.4901 11.4527 8.49224 11.924 8.4942 12.3972C9.28308 12.4192 10.0721 12.4091 10.861 12.4251C10.6619 13.1131 10.2082 13.7533 9.51972 14.0018C8.1904 14.5924 6.49424 13.8209 6.07596 12.415C5.57106 11.0688 6.39762 9.4442 7.7623 9.05259C8.60851 8.75244 9.48025 9.0904 10.2043 9.53386C10.5711 9.1878 10.9144 8.81798 11.2516 8.4442C10.429 7.75028 9.37184 7.32482 8.28506 7.41827C6.15276 7.44383 4.28674 9.42835 4.36765 11.5758Z" fill="#DC4E41"/>
<path fill-rule="evenodd" clip-rule="evenodd" d="M15.007 9.78601C15.0031 10.1817 14.9989 10.5795 14.997 10.975C14.6025 10.979 14.2101 10.981 13.8175 10.9829C13.8175 11.3787 13.8175 11.7722 13.8175 12.168C14.2101 12.17 14.6046 12.1719 14.997 12.1761C15.0009 12.5718 15.0009 12.9674 15.0048 13.3651C15.3954 13.3651 15.788 13.3631 16.1804 13.3651C16.1825 12.9674 16.1843 12.5718 16.1884 12.1741C16.5808 12.1721 16.9753 12.1701 17.3679 12.1682C17.3679 11.7724 17.3679 11.3788 17.3679 10.9831C16.9755 10.9811 16.581 10.9792 16.1884 10.9752C16.1863 10.5795 16.1825 10.1817 16.1804 9.78619C15.788 9.78601 15.3974 9.78601 15.007 9.78601Z" fill="#DC4E41"/>
<path fill-rule="evenodd" clip-rule="evenodd" d="M4.36765 11.5757C4.28674 9.42832 6.15258 7.44392 8.28489 7.41817C9.37167 7.32473 10.429 7.75017 11.2514 8.44404C10.9141 8.81799 10.5708 9.18761 10.2041 9.53365C9.48008 9.09021 8.60833 8.75227 7.76212 9.0524C6.39726 9.44417 5.5707 11.0687 6.07578 12.4146C6.49406 13.8204 8.19023 14.5919 9.51955 14.0013C10.2079 13.7529 10.6617 13.1127 10.8608 12.4247C10.072 12.4089 9.2829 12.4188 8.49403 12.3968C8.49206 11.9237 8.4901 11.4523 8.49206 10.9792C9.80763 10.9772 11.1252 10.9732 12.4427 10.9851C12.5236 12.1444 12.3539 13.3851 11.6063 14.3155C10.5826 15.6437 8.6912 16.0335 7.15256 15.5124C5.51962 14.9718 4.33211 13.3134 4.36765 11.5757Z" fill="#212121"/>
<path fill-rule="evenodd" clip-rule="evenodd" d="M15.007 9.78601C15.3976 9.78601 15.788 9.78601 16.1804 9.78601C16.1825 10.1818 16.1863 10.5795 16.1884 10.9751C16.5808 10.979 16.9753 10.981 17.3679 10.983C17.3679 11.3787 17.3679 11.7723 17.3679 12.1681C16.9755 12.17 16.581 12.172 16.1884 12.174C16.1845 12.5717 16.1825 12.9673 16.1804 13.365C15.788 13.363 15.3953 13.365 15.0048 13.365C15.0011 12.9673 15.0011 12.5717 14.997 12.176C14.6046 12.1718 14.2101 12.17 13.8175 12.1679C13.8175 11.7721 13.8175 11.3785 13.8175 10.9828C14.2101 10.9808 14.6026 10.9788 14.997 10.9749C14.9989 10.5795 15.0029 10.1818 15.007 9.78601Z" fill="#212121"/>
</svg>
