<svg xmlns="http://www.w3.org/2000/svg" width="21" height="22" fill="none" viewBox="0 0 21 22"><path stroke="#F5F5F5" stroke-width="1.3" d="M17.241 1.51923H3.00158C1.76312 1.51923 0.759155 2.54028 0.759155 3.79981V18.2815C0.759155 19.541 1.76312 20.5621 3.00158 20.5621H17.241C18.4795 20.5621 19.4834 19.541 19.4834 18.2815V3.79981C19.4834 2.54028 18.4795 1.51923 17.241 1.51923Z"/><path fill="#F5F5F5" d="M13.3535 20.8361V13.1656H15.7891L16.1916 10.6801H13.3535V8.95624C13.3535 8.27573 13.8669 7.75357 14.536 7.75357H16.1521V5.26807H14.536C12.5288 5.26807 10.9105 6.92173 10.9105 8.96321V10.6801H8.54456V13.1656H10.9105V20.8361H13.3535Z"/></svg>