<svg width="16" height="22" viewBox="0 0 16 22" fill="none" xmlns="http://www.w3.org/2000/svg">
<path d="M7.99993 14.9643V14.6294C8.14734 14.6294 8.29122 14.68 8.40774 14.7756L14.5465 19.8002V3.11742C14.5467 2.49404 14.034 1.98122 13.3985 1.98122H2.60198C1.96674 1.98122 1.45372 2.49418 1.45372 3.11754V19.8002L7.59262 14.7749C7.70933 14.6798 7.8532 14.6294 7.99993 14.6294V14.9643ZM14.5983 20.8457V21.1806C14.2962 21.1806 14.004 21.0705 13.7851 20.8775L7.99994 16.1429L2.21569 20.8773C1.99509 21.0718 1.70288 21.1805 1.40288 21.1805C0.715088 21.1805 0.151611 20.6168 0.151611 19.9172L0.151611 3.11754C0.15164 1.75694 1.25324 0.655334 2.60198 0.655334H13.3985C14.7473 0.655334 15.8486 1.7569 15.8486 3.11754V19.9166C15.849 20.6164 15.2857 21.1806 14.5983 21.1806V20.8457Z" fill="black"/>
</svg>
