<svg xmlns="http://www.w3.org/2000/svg" width="25" height="19" fill="none" viewBox="0 0 25 19"><path fill="#757575" d="M2.45431 0.666016C2.00993 0.666016 1.73219 0.703116 1.6211 0.777263C1.51 0.851409 1.4915 0.934844 1.56555 1.02757C1.63959 1.12029 1.82479 1.27787 2.12103 1.50037C2.26917 1.61161 2.38027 1.70434 2.45431 1.77849L12.7657 10.2054L23.0771 1.83411L23.3548 1.55599C23.6511 1.3335 23.8455 1.17592 23.9381 1.08319C24.0307 0.990467 24.0214 0.897799 23.9103 0.805074C23.7992 0.71235 23.5215 0.666016 23.0771 0.666016H11.9325H2.45431Z"/><path fill="#757575" d="M0.787842 2.89075V17.0192C0.787842 17.4271 0.954485 17.8443 1.28777 18.2707C1.62106 18.6972 1.95435 18.9104 2.28763 18.9104H23.2437C23.577 18.9104 23.9103 18.6972 24.2436 18.2707C24.5768 17.8443 24.7435 17.4271 24.7435 17.0192V2.89075L12.7657 12.6527L0.787842 2.89075Z"/></svg>