<svg width="22" height="21" viewBox="0 0 22 21" fill="none" xmlns="http://www.w3.org/2000/svg">
<path d="M18.1198 1.03732H3.88036C2.64191 1.03732 1.63794 2.05837 1.63794 3.3179V17.7995C1.63794 19.0591 2.64191 20.0801 3.88036 20.0801H18.1198C19.3582 20.0801 20.3622 19.0591 20.3622 17.7995V3.3179C20.3622 2.05837 19.3582 1.03732 18.1198 1.03732Z" fill="white" stroke="#212121" stroke-width="1.3"/>
<path d="M14.2323 20.3538V12.6834H16.6679L17.0704 10.1979H14.2323V8.47411C14.2323 7.79361 14.7457 7.27146 15.4148 7.27146H17.0309V4.78598H15.4148C13.4076 4.78598 11.7893 6.43962 11.7893 8.48108V10.1979H9.42334V12.6834H11.7893V20.3538H14.2323Z" fill="#212121"/>
</svg>
