<svg width="54" height="56" viewBox="0 0 54 56" fill="none" xmlns="http://www.w3.org/2000/svg">
<path opacity="0.9" d="M49.0165 0.913025H4.9835C2.28142 0.913025 0.0909424 3.14077 0.0909424 5.88884V50.6712C0.0909424 53.4192 2.28142 55.647 4.9835 55.647H49.0165C51.7186 55.647 53.9091 53.4192 53.9091 50.6712V5.88884C53.9091 3.14077 51.7186 0.913025 49.0165 0.913025Z" fill="white"/>
<path fill-rule="evenodd" clip-rule="evenodd" d="M15.9198 17.6755V40.4947C15.9198 40.8572 16.2087 41.151 16.5651 41.151C16.6717 41.151 16.7767 41.1241 16.8706 41.0728L37.7453 29.6632C38.0593 29.4916 38.177 29.0937 38.0083 28.7744C37.9483 28.6609 37.8569 28.5679 37.7453 28.507L16.8706 17.0974C16.5567 16.9258 16.1654 17.0455 15.9967 17.3648C15.9462 17.4603 15.9198 17.567 15.9198 17.6755Z" fill="#212121"/>
</svg>
