<svg xmlns="http://www.w3.org/2000/svg" width="29" height="29" fill="none" viewBox="0 0 29 29"><path fill="#fff" d="M26.1488 0.168762H3.21495C1.80762 0.168762 0.666748 1.32905 0.666748 2.76035V26.0846C0.666748 27.5159 1.80762 28.6762 3.21495 28.6762H26.1488C27.5561 28.6762 28.697 27.5159 28.697 26.0846V2.76035C28.697 1.32905 27.5561 0.168762 26.1488 0.168762Z" opacity=".9"/><path fill="#212121" fill-rule="evenodd" d="M8.91101 8.89924V20.7845C8.91101 20.9733 9.06149 21.1263 9.24711 21.1263C9.30264 21.1263 9.35731 21.1123 9.40622 21.0856L20.2785 15.143C20.442 15.0536 20.5033 14.8463 20.4154 14.68C20.3842 14.621 20.3366 14.5725 20.2785 14.5408L9.40622 8.59814C9.24272 8.50877 9.03893 8.57112 8.95106 8.73742C8.92477 8.78716 8.91101 8.84276 8.91101 8.89924Z" clip-rule="evenodd"/></svg>