<svg xmlns="http://www.w3.org/2000/svg" width="24" height="20" fill="none" viewBox="0 0 24 20"><path fill="#F5F5F5" d="M2.30747 12.2273L2.67064 11.4314C2.07733 11.1569 1.68692 10.5499 1.68692 9.86791C1.68692 8.91932 2.43517 8.1535 3.35503 8.1535C3.82807 8.1535 4.26876 8.35594 4.58345 8.7067L5.22897 8.11953C4.7514 7.58723 4.07733 7.27759 3.35503 7.27759C1.95153 7.27759 0.817017 8.43873 0.817017 9.86791C0.817017 10.8937 1.40676 11.8106 2.30747 12.2273Z"/><path fill="#F5F5F5" d="M18.5614 8.27695L19.2511 8.81081C19.566 8.39825 20.0454 8.15358 20.5645 8.15358C21.4852 8.15358 22.2341 8.91956 22.2341 9.86814C22.2341 10.5732 21.8163 11.1969 21.1922 11.4569L21.5247 12.2664C22.4728 11.8714 23.104 10.9292 23.104 9.86814C23.104 8.43879 21.9687 7.27759 20.5645 7.27759C19.7715 7.27759 19.0388 7.65154 18.5614 8.27695Z"/><path fill="#F5F5F5" d="M17.6917 2.74286C17.9253 2.79909 18.16 2.654 18.2159 2.41878C18.2717 2.18356 18.1276 1.94729 17.894 1.89105L13.6863 0.878293C13.4637 0.824716 13.238 0.953977 13.1699 1.17398L11.6236 6.17248C11.5521 6.40339 11.6801 6.64888 11.9095 6.7208C12.1388 6.79271 12.3827 6.66383 12.4541 6.43292L13.8795 1.82529L17.6917 2.74286Z"/><path fill="#F5F5F5" d="M21.6035 2.66431C21.6035 1.48739 20.6678 0.530762 19.5108 0.530762C18.352 0.530762 17.4166 1.48683 17.4166 2.66431C17.4166 3.84123 18.3522 4.79785 19.5108 4.79785C20.6676 4.79785 21.6035 3.84067 21.6035 2.66431ZM20.7335 2.66431C20.7335 3.36012 20.184 3.92214 19.5108 3.92214C18.8357 3.92214 18.2865 3.36061 18.2865 2.66431C18.2865 1.96752 18.8354 1.40647 19.5108 1.40647C20.1843 1.40647 20.7335 1.96801 20.7335 2.66431Z"/><path fill="#F5F5F5" d="M21.9908 12.8271C21.9908 8.97396 17.4775 5.91602 11.9142 5.91602C6.35155 5.91602 1.83838 8.97407 1.83838 12.8271C1.83838 16.68 6.35124 19.7374 11.9142 19.7374C17.4778 19.7374 21.9908 16.6801 21.9908 12.8271ZM20.8967 12.8271C20.8967 15.9968 16.8771 18.6336 11.9142 18.6336C6.95189 18.6336 2.93253 15.9967 2.93253 12.8271C2.93253 9.6573 6.95218 7.01987 11.9142 7.01987C16.8768 7.01987 20.8967 9.6572 20.8967 12.8271Z"/><path fill="#F5F5F5" d="M10.1549 11.5857C10.1549 10.716 9.46299 10.0085 8.60653 10.0085C7.7489 10.0085 7.05737 10.7156 7.05737 11.5857C7.05737 12.4551 7.74906 13.162 8.60653 13.162C9.46282 13.162 10.1549 12.4547 10.1549 11.5857Z"/><path fill="#F5F5F5" d="M16.8686 11.5857C16.8686 10.7158 16.1773 10.0085 15.3202 10.0085C14.4638 10.0085 13.7719 10.716 13.7719 11.5857C13.7719 12.4547 14.4639 13.162 15.3202 13.162C16.1771 13.162 16.8686 12.4549 16.8686 11.5857Z"/><path fill="#F5F5F5" d="M8.97866 15.4564C8.81012 15.285 8.53474 15.2828 8.36356 15.4516C8.19238 15.6204 8.19024 15.8961 8.35878 16.0675C9.17583 16.8985 10.383 17.204 11.9483 17.204C12.1885 17.204 12.3832 17.009 12.3832 16.7684C12.3832 16.5279 12.1885 16.3329 11.9483 16.3329C10.5952 16.3329 9.59051 16.0787 8.97866 15.4564Z"/><path fill="#F5F5F5" d="M15.5618 16.0677C15.7304 15.8963 15.7284 15.6206 15.5573 15.4517C15.3862 15.2829 15.1108 15.2849 14.9422 15.4562C14.3295 16.0788 13.3257 16.3329 11.9724 16.3329C11.7322 16.3329 11.5375 16.5279 11.5375 16.7684C11.5375 17.009 11.7322 17.204 11.9724 17.204C13.5377 17.204 14.744 16.8986 15.5618 16.0677Z"/></svg>