<svg width="39" height="40" viewBox="0 0 39 40" fill="none" xmlns="http://www.w3.org/2000/svg">
<path opacity="0.9" d="M34.7163 0.811951H3.52623C1.61225 0.811951 0.0606689 2.38994 0.0606689 4.3365V36.0574C0.0606689 38.004 1.61225 39.582 3.52623 39.582H34.7163C36.6303 39.582 38.1819 38.004 38.1819 36.0574V4.3365C38.1819 2.38994 36.6303 0.811951 34.7163 0.811951Z" fill="white"/>
<path fill-rule="evenodd" clip-rule="evenodd" d="M11.2728 12.6856V28.8489C11.2728 29.1056 11.4775 29.3138 11.7299 29.3138C11.8054 29.3138 11.8798 29.2947 11.9463 29.2584L26.7326 21.1767C26.9549 21.0552 27.0383 20.7733 26.9188 20.5472C26.8764 20.4668 26.8116 20.4009 26.7326 20.3578L11.9463 12.2761C11.7239 12.1546 11.4468 12.2394 11.3273 12.4655C11.2915 12.5332 11.2728 12.6088 11.2728 12.6856Z" fill="#212121"/>
</svg>
