<svg xmlns="http://www.w3.org/2000/svg" width="22" height="22" fill="none" viewBox="0 0 22 22"><path stroke="#F5F5F5" stroke-width="1.3" d="M18.1198 1.52716H3.88036C2.64191 1.52716 1.63794 2.54822 1.63794 3.80776V18.2895C1.63794 19.5491 2.64191 20.5701 3.88036 20.5701H18.1198C19.3582 20.5701 20.3622 19.5491 20.3622 18.2895V3.80776C20.3622 2.54822 19.3582 1.52716 18.1198 1.52716Z"/><path fill="#F5F5F5" fill-rule="evenodd" d="M5.53685 9.05597H7.93973V16.75H5.53685V9.05597ZM6.72244 8.00589C5.91643 8.00589 5.39392 7.41485 5.39392 6.67612C5.39392 5.92112 5.93159 5.3468 6.754 5.3468C7.57656 5.3468 8.08197 5.92112 8.09782 6.67612C8.09782 7.41485 7.57656 8.00589 6.73829 8.00589H6.72244ZM11.6727 16.75V16.7499H9.26881C9.26881 16.7499 9.30107 9.77768 9.26881 9.05597H11.6727V10.1462C11.6679 10.1546 11.6611 10.163 11.6569 10.1713H11.6727V10.1462C11.992 9.62319 12.5621 8.87528 13.8389 8.87528C15.4205 8.87528 16.6061 9.97464 16.6061 12.3378V16.7499H14.2026V12.6336C14.2026 11.5998 13.8553 10.8941 12.9855 10.8941C12.3211 10.8941 11.9264 11.3692 11.7525 11.8294C11.6892 11.9939 11.6727 12.2223 11.6727 12.4529V16.75Z" clip-rule="evenodd"/></svg>