<svg width="14" height="18" viewBox="0 0 14 18" fill="none" xmlns="http://www.w3.org/2000/svg">
<path d="M6.99995 12.2274V11.9325C7.12961 11.9325 7.2562 11.9758 7.35873 12.0576L12.5815 16.2158V2.37388C12.5817 1.86458 12.1507 1.44525 11.6161 1.44525H2.38432C1.84999 1.44525 1.41872 1.8647 1.41872 2.374V16.2158L6.64163 12.057C6.74432 11.9756 6.87088 11.9325 6.99995 11.9325V12.2274ZM12.642 17.1192V17.4141C12.3799 17.4141 12.1263 17.3212 11.9366 17.1586L6.99996 13.2286L2.06454 17.158C1.87294 17.3223 1.61933 17.4141 1.359 17.4141C0.762041 17.4141 0.272827 16.938 0.272827 16.3469L0.272827 2.37399C0.272852 1.23314 1.2222 0.309692 2.38432 0.309692H11.6161C12.7782 0.309692 13.7273 1.23311 13.7273 2.374V16.3465C13.7277 16.9377 13.2387 17.4141 12.642 17.4141V17.1192Z" fill="#151515"/>
</svg>
