<svg width="20" height="19" viewBox="0 0 20 19" fill="none" xmlns="http://www.w3.org/2000/svg">
<path d="M15.9459 8.86691C15.9459 6.92332 15.1834 5.13648 13.8174 3.75715C12.4514 2.37783 10.5771 1.65682 8.60754 1.65682C6.63795 1.65682 4.82719 2.40918 3.42941 3.75715C2.03164 5.10513 1.30098 6.95467 1.30098 8.86691C1.30098 10.7792 2.0634 12.5974 3.42941 13.9767C4.79542 15.356 6.66972 16.1084 8.60754 16.1084C10.5771 16.1084 12.3879 15.356 13.7857 14.008C15.1834 12.66 15.9459 10.8105 15.9459 8.86691ZM18.4555 18.6476C18.2967 18.6476 18.1378 18.5849 18.0108 18.4595L14.5163 15.0112C12.9279 16.5159 10.8313 17.3623 8.60754 17.3623C6.32027 17.3623 4.16007 16.4845 2.53992 14.8858C0.919768 13.2557 0.0302734 11.1553 0.0302734 8.86691C0.0302734 6.57849 0.919768 4.47816 2.53992 2.8794C4.16007 1.28064 6.32027 0.402893 8.60754 0.402893C10.8948 0.402893 13.055 1.28064 14.6752 2.8794C16.2953 4.47816 17.1848 6.60984 17.1848 8.86691C17.1848 10.7792 16.5495 12.5974 15.3741 14.0707L18.9003 17.5504C19.1544 17.8325 19.1544 18.2087 18.9003 18.4595C18.7732 18.5849 18.6144 18.6476 18.4555 18.6476ZM6.0979 11.3748C6.35204 11.6256 6.35204 12.0017 6.0979 12.2525C5.97083 12.3779 5.81199 12.4406 5.65315 12.4406C5.49431 12.4406 5.33547 12.3779 5.2084 12.2525C4.09653 11.1553 3.58825 9.55657 3.87416 8.02051C3.9377 7.67568 4.25537 7.45624 4.60482 7.51894C4.95426 7.58164 5.17663 7.89512 5.1131 8.23995C4.89073 9.39983 5.27194 10.5597 6.0979 11.3748Z" fill="#151515"/>
</svg>
