<svg xmlns="http://www.w3.org/2000/svg" width="16" height="22" fill="none" viewBox="0 0 16 22"><path fill="#F5F5F5" d="M7.99993 15.1477V14.8129C8.14734 14.8129 8.29122 14.8634 8.40774 14.9591L14.5465 19.9837V3.30068C14.5467 2.67729 14.034 2.16447 13.3985 2.16447H2.60198C1.96674 2.16447 1.45372 2.67744 1.45372 3.30081V19.9837L7.59262 14.9583C7.70933 14.8632 7.8532 14.8129 7.99993 14.8129V15.1477ZM14.5983 21.0292V21.3641C14.2962 21.3641 14.004 21.254 13.7851 21.0611L7.99994 16.3264L2.21569 21.0608C1.99509 21.2553 1.70288 21.364 1.40288 21.364C0.715088 21.364 0.151611 20.8003 0.151611 20.1007L0.151611 3.3008C0.15164 1.94018 1.25324 0.838562 2.60198 0.838562H13.3985C14.7473 0.838562 15.8486 1.94014 15.8486 3.30081V20.1001C15.849 20.7999 15.2857 21.3641 14.5983 21.3641V21.0292Z"/></svg>