<svg width="16" height="20" viewBox="0 0 16 20" fill="none" xmlns="http://www.w3.org/2000/svg">
<path d="M15.8125 16.1372C14.9432 14.3494 14.4836 12.3479 14.4836 10.3491V9.27694C14.4836 6.20813 12.4562 3.61743 9.70629 2.84535V2.61062C9.70629 1.6433 8.94089 0.856323 8.00009 0.856323C7.05929 0.856323 6.29389 1.6433 6.29389 2.61062V2.84535C3.54403 3.61739 1.51656 6.2081 1.51656 9.27694V10.3491C1.51656 12.3479 1.05701 14.3494 0.187636 16.1372C0.134749 16.246 0.140398 16.3751 0.202573 16.4785C0.264713 16.582 0.374541 16.645 0.492826 16.645H5.30229C5.46566 18.0267 6.61281 19.101 8.00009 19.101C9.38738 19.101 10.5345 18.0267 10.6979 16.645H15.5074C15.6256 16.645 15.7355 16.582 15.7976 16.4785C15.8598 16.3751 15.8654 16.246 15.8125 16.1372ZM6.97636 2.61062C6.97636 2.03022 7.4356 1.55807 8.00006 1.55807C8.56452 1.55807 9.02376 2.03025 9.02376 2.61062V2.69358C9.01579 2.6923 9.00771 2.69119 8.99974 2.68991C8.98557 2.68767 8.97139 2.6856 8.95718 2.68342C8.92301 2.67822 8.8888 2.67323 8.85453 2.6686C8.83612 2.66611 8.81772 2.66365 8.79925 2.6613C8.76678 2.6572 8.73423 2.65342 8.70169 2.64979C8.68433 2.64786 8.66703 2.64576 8.6496 2.64398C8.60264 2.63917 8.55561 2.63486 8.50858 2.63108C8.49219 2.6298 8.47573 2.62876 8.4593 2.62755C8.42551 2.62509 8.39172 2.62281 8.35789 2.62092C8.33904 2.61985 8.32018 2.61896 8.3013 2.61804C8.26751 2.61643 8.23372 2.61511 8.19996 2.61408C8.18343 2.61355 8.16693 2.61298 8.15037 2.61258C8.10029 2.61144 8.05014 2.61066 8.00002 2.61066C7.94991 2.61066 7.89976 2.61144 7.84965 2.61262C7.83308 2.61301 7.81658 2.61362 7.80005 2.61412C7.76623 2.61519 7.73244 2.6165 7.69872 2.61807C7.67986 2.61896 7.66097 2.61989 7.64212 2.62096C7.6083 2.62285 7.5745 2.62513 7.54071 2.62759C7.52429 2.62876 7.50782 2.62976 7.49143 2.63108C7.44437 2.63486 7.39734 2.63917 7.35041 2.64398C7.33301 2.64576 7.31572 2.64786 7.29832 2.64979C7.26578 2.65339 7.23324 2.6572 7.20076 2.6613C7.18229 2.66365 7.16389 2.66611 7.14549 2.6686C7.11121 2.67323 7.07704 2.67822 7.04283 2.68342C7.02862 2.6856 7.01445 2.68767 7.00027 2.68991C6.99234 2.69116 6.98426 2.69226 6.97629 2.69354V2.61062H6.97636ZM8.00009 18.3993C6.98974 18.3993 6.14889 17.6386 5.99075 16.645H10.0094C9.8513 17.6385 9.01045 18.3993 8.00009 18.3993ZM1.03216 15.9433C1.13301 15.7122 1.22738 15.4781 1.31551 15.2415H3.22273C3.41119 15.2415 3.56396 15.0845 3.56396 14.8907C3.56396 14.6969 3.41119 14.5398 3.22273 14.5398H1.55583C1.97913 13.1881 2.19903 11.768 2.19903 10.3491V9.27698C2.19903 6.40576 4.18245 4.00206 6.81444 3.4378C6.82234 3.43612 6.83025 3.43431 6.83815 3.43263C6.86951 3.42604 6.90108 3.42002 6.93259 3.41396C6.95484 3.40972 6.97705 3.40541 6.99937 3.40142C7.02162 3.39742 7.04394 3.39372 7.06629 3.38998C7.09998 3.38438 7.1337 3.379 7.16749 3.37401C7.18087 3.37202 7.19428 3.37013 7.20769 3.36824C7.25289 3.36193 7.29808 3.35602 7.34341 3.35082C7.34709 3.35039 7.35079 3.34992 7.35447 3.34953C7.78272 3.30103 8.21739 3.30103 8.64565 3.34953C8.64932 3.34996 8.65307 3.35042 8.65674 3.35082C8.70207 3.35605 8.74726 3.36193 8.79246 3.36824C8.80587 3.37013 8.81928 3.37205 8.83266 3.37401C8.86648 3.379 8.90021 3.38438 8.93386 3.38998C8.95618 3.39368 8.97853 3.39742 9.00078 3.40142C9.0231 3.40537 9.04531 3.40968 9.06756 3.41396C9.0991 3.42002 9.13067 3.42604 9.162 3.43263C9.16991 3.43427 9.17781 3.43609 9.18571 3.4378C11.8177 4.00206 13.8011 6.40576 13.8011 9.27698V10.3491C13.8011 12.269 14.2032 14.1912 14.968 15.9433H1.03216Z" fill="#151515" stroke="#151515" stroke-width="0.3"/>
</svg>
