<svg width="31" height="22" viewBox="0 0 31 22" fill="none" xmlns="http://www.w3.org/2000/svg">
<path d="M9.83923 2.4285C5.50992 2.48209 1.67475 6.68686 1.83993 11.2132C1.76787 14.9092 4.19525 18.4391 7.5469 19.585C10.842 20.7371 14.6495 19.7541 16.6497 17.0753C17.9205 15.4417 18.4665 13.2134 18.3885 10.597C16.5061 10.5823 14.7526 10.5815 11.2652 10.5875C11.1528 10.5877 11.0663 10.5878 10.9939 10.5879C10.9936 10.8744 10.9938 11.1743 10.9945 11.4961C10.9951 11.7881 10.9959 12.0376 10.9973 12.4227C11.5242 12.4328 12.1066 12.4384 12.9257 12.4432C13.0598 12.444 13.0598 12.444 13.1939 12.4447C14.3767 12.4514 14.9032 12.4564 15.563 12.4702L16.477 12.4894L16.2267 13.3819C15.6875 15.3052 14.4738 16.8526 12.8616 17.4513C9.51036 18.9883 5.29593 16.992 4.26543 13.4105C3.00781 9.94876 5.03872 5.78787 8.43095 4.78438C10.1874 4.14121 12.0226 4.52804 13.9856 5.66348C14.4232 5.22018 14.8697 4.73856 15.3928 4.15046C13.7198 2.89216 11.7731 2.25865 9.83923 2.4285ZM9.76919 0.99958C12.272 0.77741 14.8102 1.72258 16.8746 3.52032L17.4188 3.99419L16.943 4.53864C16.0034 5.61395 15.31 6.36528 14.579 7.07715L14.1833 7.46249L13.7179 7.1682C11.9037 6.0211 10.3164 5.61599 8.86784 6.14493C6.22283 6.9285 4.61248 10.2278 5.60397 12.9618C6.41005 15.7587 9.71417 17.3237 12.3282 16.1269C13.2742 15.7745 14.0504 14.9621 14.5432 13.8862C14.1874 13.8825 13.7664 13.8797 13.1861 13.8764C13.0519 13.8757 13.0519 13.8757 12.9176 13.8749C11.7262 13.8679 11.0287 13.8592 10.2749 13.8375L9.59242 13.8179L9.58963 13.1249L9.5891 12.9948C9.58607 12.2434 9.5849 11.9143 9.58403 11.4991C9.58276 10.8988 9.58306 10.3734 9.58527 9.87007L9.58839 9.1585L10.2894 9.15741C10.776 9.15663 10.776 9.15663 11.2628 9.15578C15.1607 9.14906 16.8965 9.15085 19.0661 9.17105L19.7186 9.17713L19.7632 9.83786C19.9814 13.0639 19.3825 15.8726 17.7652 17.9513C15.3885 21.1347 10.936 22.2842 7.09212 20.9402C3.16568 19.5979 0.35431 15.5165 0.429715 11.2458C0.247647 5.93212 4.69762 1.06035 9.76919 0.99958ZM25.4343 9.86644L25.4309 10.5715L24.7363 10.5787C24.1507 10.5848 23.6606 10.5885 22.8163 10.5932V11.8848C23.0432 11.8861 23.1936 11.887 23.3677 11.8881C23.8874 11.8914 24.3216 11.895 24.7367 11.8995L25.4273 11.907L25.4343 12.608C25.4353 12.7132 25.4353 12.7132 25.4363 12.8183C25.4392 13.1566 25.4407 13.4278 25.4437 14.0344C25.4448 14.2721 25.4457 14.4614 25.4466 14.6235C25.4981 14.6234 25.5535 14.6233 25.6135 14.6232C26.0926 14.6223 26.3893 14.622 26.6544 14.6222C26.6558 14.3604 26.6568 14.1798 26.6581 13.971C26.6612 13.4639 26.6645 13.0248 26.6685 12.6038L26.6753 11.8985L27.3701 11.8949C27.9957 11.8917 27.9957 11.8917 28.6223 11.8884L28.6793 11.8881C28.9752 11.8866 29.1374 11.8857 29.2866 11.885V10.5936C29.0808 10.5925 28.9187 10.5915 28.7352 10.5903C28.2291 10.5871 27.7876 10.5835 27.3665 10.5792L26.6722 10.5719L26.6685 9.86717C26.6665 9.49016 26.6645 9.18806 26.6596 8.50642L26.6592 8.44709C26.6575 8.21296 26.6561 8.02166 26.655 7.85448H25.4495C25.4418 8.67297 25.4373 9.25587 25.4343 9.86644ZM24.0461 7.13133L24.0532 6.42278H28.0574L28.0611 7.13482C28.063 7.49981 28.0652 7.81868 28.0696 8.43664L28.07 8.49597C28.072 8.76498 28.0735 8.975 28.0747 9.15389C28.2867 9.15559 28.5083 9.15716 28.744 9.15867C29.0907 9.16088 29.3611 9.16237 29.9954 9.16567L30.697 9.16932V13.3093L29.9954 13.313C29.3416 13.3164 29.3416 13.3164 28.6865 13.3198L28.6296 13.3201C28.3626 13.3215 28.2093 13.3223 28.073 13.323C28.0714 13.5308 28.07 13.7482 28.0686 13.9798C28.0666 14.2961 28.0653 14.5474 28.0623 15.1162C28.0617 15.23 28.0617 15.23 28.0611 15.3438L28.0574 16.0595L27.3523 16.0559C27.179 16.055 27.179 16.055 27.0055 16.0545C26.6198 16.0535 26.3101 16.0537 25.6159 16.0549C25.1812 16.0556 24.9878 16.0559 24.7466 16.0559H24.0478L24.0414 15.3467C24.038 14.9829 24.0363 14.6938 24.0332 14.0413C24.0317 13.7331 24.0306 13.5119 24.0295 13.3246C23.8199 13.3229 23.5985 13.3213 23.3588 13.3198C23.1086 13.3182 22.9074 13.317 22.4559 13.3145C22.2815 13.3136 22.2815 13.3136 22.1071 13.3126L21.4058 13.3086V9.16891L22.1074 9.16526C22.9884 9.16067 23.5393 9.15746 24.0281 9.15354C24.0319 8.59685 24.0376 7.9835 24.0461 7.13133Z" fill="#F5F5F5"/>
</svg>
