<svg width="22" height="21" viewBox="0 0 22 21" fill="none" xmlns="http://www.w3.org/2000/svg">
<path d="M18.1198 1.14941H3.88036C2.64191 1.14941 1.63794 2.17047 1.63794 3.43001V17.9118C1.63794 19.1713 2.64191 20.1924 3.88036 20.1924H18.1198C19.3582 20.1924 20.3622 19.1713 20.3622 17.9118V3.43001C20.3622 2.17047 19.3582 1.14941 18.1198 1.14941Z" fill="white" stroke="#212121" stroke-width="1.3"/>
<path fill-rule="evenodd" clip-rule="evenodd" d="M5.53685 8.67839H7.93973V16.3723H5.53685V8.67839ZM6.72244 7.62833C5.91643 7.62833 5.39392 7.0373 5.39392 6.29859C5.39392 5.54359 5.93159 4.96928 6.754 4.96928C7.57656 4.96928 8.08197 5.54359 8.09782 6.29859C8.09782 7.0373 7.57656 7.62833 6.73829 7.62833H6.72244ZM11.6727 16.3723V16.3722H9.26881C9.26881 16.3722 9.30107 9.40009 9.26881 8.67839H11.6727V9.76856C11.6679 9.77699 11.6611 9.78543 11.6569 9.79372H11.6727V9.76856C11.992 9.2456 12.5621 8.49771 13.8389 8.49771C15.4205 8.49771 16.6061 9.59705 16.6061 11.9601V16.3722H14.2026V12.2559C14.2026 11.2222 13.8553 10.5164 12.9855 10.5164C12.3211 10.5164 11.9264 10.9916 11.7525 11.4518C11.6892 11.6162 11.6727 11.8447 11.6727 12.0753V16.3723Z" fill="#212121"/>
</svg>
