<svg width="15" height="16" viewBox="0 0 15 16" fill="none" xmlns="http://www.w3.org/2000/svg">
<path d="M7.56059 15.3808C3.5356 15.3808 0.272705 12.0624 0.272705 7.96893C0.272705 3.87547 3.5356 0.557068 7.56059 0.557068C11.5856 0.557068 14.8485 3.87547 14.8485 7.96893C14.8485 12.0624 11.5856 15.3808 7.56059 15.3808ZM7.56059 14.2405C10.9663 14.2405 13.7273 11.4326 13.7273 7.96893C13.7273 4.50524 10.9663 1.69735 7.56059 1.69735C4.15483 1.69735 1.39392 4.50524 1.39392 7.96893C1.39392 11.4326 4.15483 14.2405 7.56059 14.2405ZM7.56059 11.6529C9.56117 11.6529 11.183 10.0036 11.183 7.96893C11.183 5.93431 9.56117 4.28492 7.56059 4.28492C5.56 4.28492 3.93821 5.93431 3.93821 7.96893C3.93821 10.0036 5.56 11.6529 7.56059 11.6529Z" fill="white"/>
</svg>
