<svg xmlns="http://www.w3.org/2000/svg" width="16" height="16" fill="none" viewBox="0 0 16 16"><path fill="#F44336" d="M8.00003 15.4104C3.97505 15.4104 0.712158 12.092 0.712158 7.99847C0.712158 3.90498 3.97505 0.586548 8.00003 0.586548C12.025 0.586548 15.2879 3.90498 15.2879 7.99847C15.2879 12.092 12.025 15.4104 8.00003 15.4104ZM8.00003 14.2701C11.4058 14.2701 14.1667 11.4622 14.1667 7.99847C14.1667 4.53475 11.4058 1.72684 8.00003 1.72684C4.59428 1.72684 1.83337 4.53475 1.83337 7.99847C1.83337 11.4622 4.59428 14.2701 8.00003 14.2701ZM8.00003 11.6825C10.0006 11.6825 11.6224 10.0331 11.6224 7.99847C11.6224 5.96384 10.0006 4.31444 8.00003 4.31444C5.99945 4.31444 4.37766 5.96384 4.37766 7.99847C4.37766 10.0331 5.99945 11.6825 8.00003 11.6825Z"/></svg>