<svg xmlns="http://www.w3.org/2000/svg" width="15" height="12" fill="none" viewBox="0 0 15 12"><path fill="#151515" d="M13.9413 1.4889H1.17992C0.69861 1.4889 0.272705 1.19537 0.272705 0.776218C0.272705 0.357069 0.69861 0.0635376 1.17992 0.0635376H13.9413C14.4226 0.0635376 14.8485 0.357069 14.8485 0.776218C14.8485 1.19537 14.4226 1.4889 13.9413 1.4889ZM9.7947 6.47766H0.953741C0.572737 6.47766 0.272705 6.15379 0.272705 5.76498C0.272705 5.37618 0.572737 5.0523 0.953741 5.0523H9.7947C10.1757 5.0523 10.4757 5.37618 10.4757 5.76498C10.4757 6.15379 10.1757 6.47766 9.7947 6.47766ZM13.9413 11.4664H1.17992C0.69861 11.4664 0.272705 11.1729 0.272705 10.7537C0.272705 10.3346 0.69861 10.0411 1.17992 10.0411H13.9413C14.4226 10.0411 14.8485 10.3346 14.8485 10.7537C14.8485 11.1729 14.4226 11.4664 13.9413 11.4664Z"/></svg>