<svg width="17" height="14" viewBox="0 0 17 14" fill="none" xmlns="http://www.w3.org/2000/svg">
<path d="M15.923 1.80655H1.1984C0.64304 1.80655 0.151611 1.45431 0.151611 0.95134C0.151611 0.448365 0.64304 0.0961304 1.1984 0.0961304H15.923C16.4784 0.0961304 16.9698 0.448365 16.9698 0.95134C16.9698 1.45431 16.4784 1.80655 15.923 1.80655ZM11.1385 7.79301H0.937423C0.497803 7.79301 0.151611 7.40437 0.151611 6.93781C0.151611 6.47124 0.497803 6.0826 0.937423 6.0826H11.1385C11.5781 6.0826 11.9243 6.47124 11.9243 6.93781C11.9243 7.40437 11.5781 7.79301 11.1385 7.79301ZM15.923 13.7795H1.1984C0.64304 13.7795 0.151611 13.4272 0.151611 12.9243C0.151611 12.4213 0.64304 12.0691 1.1984 12.0691H15.923C16.4784 12.0691 16.9698 12.4213 16.9698 12.9243C16.9698 13.4272 16.4784 13.7795 15.923 13.7795Z" fill="#151515"/>
</svg>
