<svg xmlns="http://www.w3.org/2000/svg" width="20" height="19" fill="none" viewBox="0 0 20 19"><path fill="#212121" fill-rule="evenodd" d="M15.946 9.16097C15.946 7.2174 15.1836 5.43047 13.8176 4.05117C12.4516 2.67187 10.5773 1.95088 8.60767 1.95088C6.63808 1.95088 4.82732 2.70322 3.42954 4.05117C2.03176 5.39912 1.3011 7.24875 1.3011 9.16097C1.3011 11.0732 2.06353 12.8913 3.42954 14.2706C4.79555 15.6499 6.66984 16.4022 8.60767 16.4022C10.5773 16.4022 12.388 15.6499 13.7858 14.3019C15.1836 12.954 15.946 11.1045 15.946 9.16097ZM18.4557 18.9414C18.2968 18.9414 18.138 18.8788 18.0109 18.7534L14.5165 15.3051C12.9281 16.8098 10.8314 17.6561 8.60767 17.6561C6.3204 17.6561 4.16019 16.7784 2.54004 15.1797C0.91989 13.5496 0.0303955 11.4493 0.0303955 9.16097C0.0303955 6.87259 0.91989 4.77229 2.54004 3.17355C4.16019 1.57482 6.3204 0.697021 8.60767 0.697021C10.8949 0.697021 13.0552 1.57482 14.6753 3.17355C16.2955 4.77229 17.1849 6.90393 17.1849 9.16097C17.1849 11.0732 16.5496 12.8912 15.3742 14.3646L18.9004 17.8443C19.1545 18.1264 19.1545 18.5026 18.9004 18.7534C18.7733 18.8788 18.6145 18.9414 18.4557 18.9414ZM6.09802 11.6687C6.35217 11.9195 6.35217 12.2957 6.09802 12.5464C5.97095 12.6718 5.81211 12.7345 5.65328 12.7345C5.49444 12.7345 5.3356 12.6718 5.20853 12.5464C4.09666 11.4493 3.58838 9.85057 3.87429 8.31453C3.93782 7.96971 4.2555 7.75032 4.60494 7.81302C4.95439 7.87571 5.17676 8.18908 5.11323 8.5339C4.89085 9.69376 5.27206 10.8536 6.09802 11.6687Z" clip-rule="evenodd"/></svg>