<svg width="14" height="14" viewBox="0 0 14 14" fill="none" xmlns="http://www.w3.org/2000/svg">
<path d="M3.32251 10.6691C3.64843 11.0003 3.84663 11.4494 3.84785 11.9495C3.8466 12.4486 3.64843 12.8978 3.32373 13.2275L3.32248 13.228C2.99722 13.5574 2.55287 13.7588 2.05879 13.7588C1.56533 13.7588 1.12211 13.5568 0.79691 13.2275C0.472525 12.8978 0.272827 12.4491 0.272827 11.9495C0.272827 11.4494 0.472525 10.9992 0.79691 10.6688V10.6691C1.12226 10.3395 1.56549 10.1367 2.05879 10.1367C2.5529 10.1367 2.99681 10.3401 3.32251 10.6691ZM3.32251 10.6688V10.6698C3.32464 10.6698 3.32464 10.6698 3.32464 10.6698L3.32251 10.6688ZM0.798446 13.2296C0.798446 13.2296 0.798446 13.2296 0.798446 13.2275C0.796315 13.2275 0.796316 13.2275 0.796316 13.2275L0.798446 13.2296ZM0.274266 4.74495V7.35772C1.95149 7.35877 3.53776 8.02896 4.72487 9.23816C5.91177 10.4435 6.56786 12.0592 6.57055 13.7709H6.57142V13.7756H9.15108C9.14905 11.2867 8.15428 9.03214 6.54603 7.3953C4.93752 5.75868 2.72167 4.7465 0.274266 4.74495ZM0.278958 0.0917969V2.70345C6.27432 2.7079 11.148 7.67228 11.1521 13.7756H13.7273C13.7256 10.0034 12.2181 6.58582 9.7818 4.1063C7.34463 1.62762 3.98655 0.0934161 0.278958 0.0917969Z" fill="white"/>
</svg>
