<svg width="12" height="12" viewBox="0 0 12 12" fill="none" xmlns="http://www.w3.org/2000/svg">
<path d="M7.73547 5.91736L11.5376 2.05049C11.6288 1.95766 11.6288 1.80729 11.5376 1.71447L10.1329 0.285479C10.0891 0.240905 10.0295 0.215881 9.96767 0.215881C9.90573 0.215881 9.84624 0.240905 9.80241 0.285479L6.00009 4.15249L2.19777 0.285479C2.11011 0.196343 1.95491 0.196343 1.86726 0.285479L0.462499 1.71447C0.371224 1.80729 0.371224 1.95766 0.462499 2.05049L4.2647 5.91736L0.462499 9.78423C0.371224 9.87705 0.371224 10.0276 0.462499 10.1204L1.86726 11.5492C1.91109 11.5938 1.97057 11.6188 2.03251 11.6188C2.09445 11.6188 2.15394 11.5938 2.19777 11.5492L6.00009 7.68223L9.80241 11.5492C9.84624 11.5938 9.90573 11.6188 9.96767 11.6188C10.0295 11.6188 10.0891 11.5938 10.1329 11.5492L11.5377 10.1204C11.629 10.0276 11.629 9.87694 11.5377 9.78423L7.73547 5.91736Z" fill="white"/>
</svg>
