<svg width="14" height="15" viewBox="0 0 14 15" fill="none" xmlns="http://www.w3.org/2000/svg">
<path d="M13.4812 0.574018C13.1531 0.240383 12.6269 0.240383 12.2988 0.574018L6.99998 5.96238L1.70111 0.574018C1.37303 0.240383 0.846852 0.240383 0.518768 0.574018C0.190684 0.907642 0.190684 1.44261 0.518768 1.77624L5.81764 7.16461L0.518768 12.553C0.190684 12.8866 0.190684 13.4217 0.518768 13.7553C0.679715 13.919 0.896375 14.0071 1.10684 14.0071C1.31731 14.0071 1.53397 13.9253 1.69492 13.7553L6.99379 8.36697L12.2927 13.7553C12.4536 13.919 12.6703 14.0071 12.8807 14.0071C13.0974 14.0071 13.3079 13.9253 13.4688 13.7553C13.7969 13.4217 13.7969 12.8866 13.4688 12.553L8.18232 7.16461L13.4812 1.77624C13.8093 1.44261 13.8093 0.907642 13.4812 0.574018Z" fill="#424242"/>
</svg>
