<svg width="7" height="14" viewBox="0 0 7 14" fill="none" xmlns="http://www.w3.org/2000/svg">
<path d="M0.890523 0.668669L0.312674 1.29705C0.235501 1.38078 0.197021 1.47723 0.197021 1.58627C0.197021 1.69505 0.235501 1.79146 0.312674 1.8752L4.85527 6.81494L0.31281 11.7545C0.235649 11.8382 0.197158 11.9346 0.197158 12.0436C0.197158 12.1525 0.235649 12.2489 0.31281 12.3326L0.89066 12.9609C0.967665 13.0448 1.05639 13.0867 1.15659 13.0867C1.2567 13.0867 1.34524 13.0447 1.42225 12.9609L6.80876 7.10403C6.8858 7.0203 6.92427 6.92385 6.92427 6.81494C6.92427 6.70603 6.8858 6.60975 6.80876 6.52606L1.42225 0.668669C1.3452 0.584938 1.25667 0.543335 1.15659 0.543335C1.05639 0.543335 0.967685 0.584938 0.890523 0.668669Z" fill="#757575"/>
</svg>
