<svg xmlns="http://www.w3.org/2000/svg" width="20" height="21" fill="none" viewBox="0 0 20 21"><path fill="#F5F5F5" d="M6.77067 12.8671C6.04805 13.7173 4.99944 14.2183 3.87039 14.2183C1.7494 14.2183 0.0302734 12.4623 0.0302734 10.2965C0.0302734 8.1307 1.7494 6.37471 3.87039 6.37471C5.07351 6.37471 6.18294 6.94406 6.90326 7.89054L11.5474 4.99655C11.457 4.66043 11.4106 4.31115 11.4106 3.95579C11.4106 1.78998 13.1298 0.0339966 15.2508 0.0339966C17.3717 0.0339966 19.0909 1.78998 19.0909 3.95579C19.0909 6.12161 17.3717 7.87759 15.2508 7.87759C14.041 7.87759 12.9263 7.30191 12.2065 6.34673L7.56866 9.23696C7.6624 9.57886 7.7105 9.93447 7.7105 10.2965C7.7105 10.7318 7.64096 11.1575 7.50655 11.5608L12.4223 13.9845C13.1428 13.1831 14.1597 12.7154 15.2508 12.7154C17.3717 12.7154 19.0909 14.4714 19.0909 16.6372C19.0909 18.803 17.3717 20.559 15.2508 20.559C13.1298 20.559 11.4106 18.803 11.4106 16.6372C11.4106 16.1655 11.4923 15.7052 11.6495 15.2727L6.77067 12.8671ZM3.87039 12.7154C5.17769 12.7154 6.23775 11.6326 6.23775 10.2965C6.23775 8.96046 5.17769 7.87759 3.87039 7.87759C2.56308 7.87759 1.50303 8.96046 1.50303 10.2965C1.50303 11.6326 2.56308 12.7154 3.87039 12.7154ZM15.2508 6.37471C16.5581 6.37471 17.6181 5.29185 17.6181 3.95579C17.6181 2.61974 16.5581 1.53702 15.2508 1.53702C13.9435 1.53702 12.8834 2.61974 12.8834 3.95579C12.8834 5.29185 13.9435 6.37471 15.2508 6.37471ZM15.2508 19.056C16.5581 19.056 17.6181 17.9733 17.6181 16.6372C17.6181 15.3012 16.5581 14.2183 15.2508 14.2183C13.9435 14.2183 12.8834 15.3012 12.8834 16.6372C12.8834 17.9733 13.9435 19.056 15.2508 19.056Z"/></svg>