<svg xmlns="http://www.w3.org/2000/svg" width="20" height="21" fill="none" viewBox="0 0 20 21"><path fill="#212121" d="M6.77067 12.9105C6.04805 13.7606 4.99944 14.2617 3.87039 14.2617C1.7494 14.2617 0.0302734 12.5057 0.0302734 10.3398C0.0302734 8.17397 1.7494 6.41792 3.87039 6.41792C5.07351 6.41792 6.18294 6.98736 6.90326 7.93384L11.5474 5.03971C11.457 4.70357 11.4106 4.35441 11.4106 3.99904C11.4106 1.83319 13.1298 0.0771484 15.2508 0.0771484C17.3717 0.0771484 19.0909 1.83319 19.0909 3.99904C19.0909 6.16488 17.3717 7.92093 15.2508 7.92093C14.041 7.92093 12.9263 7.34517 12.2065 6.38998L7.56866 9.28025C7.6624 9.62216 7.7105 9.97776 7.7105 10.3398C7.7105 10.7751 7.64096 11.2008 7.50655 11.6041L12.4223 14.0279C13.1428 13.2265 14.1597 12.7587 15.2508 12.7587C17.3717 12.7587 19.0909 14.5147 19.0909 16.6806C19.0909 18.8464 17.3717 20.6025 15.2508 20.6025C13.1298 20.6025 11.4106 18.8464 11.4106 16.6806C11.4106 16.2089 11.4923 15.7486 11.6495 15.3161L6.77067 12.9105ZM3.87039 12.7587C5.17769 12.7587 6.23775 11.6759 6.23775 10.3398C6.23775 9.00374 5.17769 7.92093 3.87039 7.92093C2.56308 7.92093 1.50303 9.00374 1.50303 10.3398C1.50303 11.6759 2.56308 12.7587 3.87039 12.7587ZM15.2508 6.41792C16.5581 6.41792 17.6181 5.33511 17.6181 3.99904C17.6181 2.66297 16.5581 1.58016 15.2508 1.58016C13.9435 1.58016 12.8834 2.66297 12.8834 3.99904C12.8834 5.33511 13.9435 6.41792 15.2508 6.41792ZM15.2508 19.0995C16.5581 19.0995 17.6181 18.0167 17.6181 16.6806C17.6181 15.3445 16.5581 14.2617 15.2508 14.2617C13.9435 14.2617 12.8834 15.3445 12.8834 16.6806C12.8834 18.0167 13.9435 19.0995 15.2508 19.0995Z"/></svg>