<svg width="26" height="21" viewBox="0 0 26 21" fill="none" xmlns="http://www.w3.org/2000/svg">
<path d="M25.3334 2.76492C23.7818 2.83746 23.8156 2.83154 23.6403 2.84643L24.5592 0.184385C24.5592 0.184385 21.6908 1.25474 20.9636 1.44621C19.0538 -0.294955 16.2151 -0.371886 14.1857 0.893374C12.5238 1.92975 11.6317 3.70948 11.9293 5.78967C8.69482 5.33439 5.96961 3.77915 3.81802 1.15738L3.13752 0.328321L2.62902 1.27555C1.98635 2.47247 1.77294 3.841 2.02794 5.12898C2.13257 5.65738 2.31041 6.16135 2.55676 6.63325L1.97299 6.40379L1.90373 7.3932C1.83354 8.39827 2.16344 9.57152 2.78635 10.5313C2.96175 10.8017 3.18758 11.0985 3.47382 11.3913L3.17214 11.3444L3.54025 12.4781C4.02409 13.9677 5.02903 15.1201 6.3332 15.7608C5.03073 16.3214 3.97855 16.6792 2.24906 17.2562L0.666748 17.7839L2.12825 18.5944C2.68548 18.9035 4.65453 19.9357 6.60006 20.2453C10.9247 20.9333 15.7938 20.373 19.0717 17.3784C21.8327 14.8561 22.7386 11.2682 22.5504 7.53447C22.522 6.96922 22.6746 6.42975 22.9803 6.0157C23.5925 5.18663 25.3297 2.77046 25.3334 2.76492ZM21.8246 5.13757C21.317 5.82499 21.0628 6.70292 21.1083 7.6093C21.2982 11.3755 20.288 14.2962 18.1055 16.2899C15.5561 18.6191 11.4439 19.5333 6.82382 18.7981C5.98712 18.6651 5.12238 18.3671 4.40668 18.0695C5.8567 17.5634 6.97644 17.1123 8.78477 16.2441L11.3092 15.0321L8.52206 14.8511C7.18703 14.7645 6.07538 14.1082 5.39205 13.0426C5.75489 13.0212 6.10474 12.9616 6.45308 12.8631L9.11129 12.1122L6.43087 11.4463C5.1284 11.1227 4.38598 10.3322 3.99247 9.72596C3.73409 9.32756 3.56528 8.91942 3.46403 8.54316C3.73277 8.61628 4.04611 8.66839 4.5514 8.71917L7.03233 8.9681L5.06667 7.41267C3.65034 6.29211 3.08275 4.6086 3.49885 2.99018C7.91909 7.6408 13.109 7.29127 13.6315 7.4142C13.5165 6.28123 13.5135 6.27856 13.4834 6.1707C12.8143 3.77171 14.2805 2.5536 14.9418 2.14126C16.3232 1.28013 18.5158 1.15032 20.0345 2.56906C20.3625 2.87526 20.8061 2.99572 21.2212 2.8911C21.5939 2.79718 21.8997 2.69773 22.1991 2.58949L21.5758 4.39499L22.3715 4.39556C22.2213 4.59982 22.0412 4.84436 21.8246 5.13757Z" fill="#212121"/>
</svg>
