<svg xmlns="http://www.w3.org/2000/svg" width="20" height="19" fill="none" viewBox="0 0 20 19"><path fill="#212121" stroke="#424242" stroke-width=".3" d="M10.0001 0.244141C5.0542 0.244141 1.0304 4.24748 1.0304 9.16821C1.0304 14.0889 5.0542 18.0923 10.0001 18.0923C14.946 18.0923 18.9698 14.0889 18.9698 9.16821C18.9698 4.24748 14.946 0.244141 10.0001 0.244141ZM10.0001 17.4055C5.43491 17.4055 1.72066 13.7102 1.72066 9.16821C1.72066 4.62626 5.43491 0.930898 10.0001 0.930898C14.5653 0.930898 18.2795 4.62626 18.2795 9.16821C18.2795 13.7102 14.5653 17.4055 10.0001 17.4055Z"/><path fill="#212121" stroke="#424242" stroke-width=".2" d="M10.0007 10.5156C7.90463 10.5156 6.3877 8.83876 6.3877 6.67178C6.3877 4.50457 7.90449 2.82812 10.0007 2.82812C12.0959 2.82812 13.6125 4.50478 13.6125 6.67178C13.6125 8.83855 12.0958 10.5156 10.0007 10.5156ZM10.0007 9.72234C11.6356 9.72234 12.8152 8.418 12.8152 6.67178C12.8152 4.92535 11.6357 3.62141 10.0007 3.62141C8.36461 3.62141 7.185 4.92518 7.185 6.67178C7.185 8.41817 8.36479 9.72234 10.0007 9.72234Z"/><path fill="#212121" stroke="#424242" stroke-width=".2" d="M12.3294 10.7868L12.5394 10.5991L12.787 10.7339C14.5791 11.7089 15.7489 13.5407 15.8384 15.5984L15.8459 15.7694L15.726 15.8921C14.229 17.4239 12.1825 18.3054 10.0001 18.3054C7.81758 18.3054 5.77114 17.4238 4.27463 15.8918L4.15479 15.7691L4.16222 15.5982C4.25179 13.5405 5.42119 11.7088 7.21303 10.7339L7.46066 10.5991L7.67066 10.7868C8.30167 11.3506 9.11163 11.6606 10.0005 11.6606C10.8889 11.6606 11.6983 11.3507 12.3294 10.7868ZM10.0005 12.4539C9.01667 12.4539 8.1037 12.1398 7.36289 11.5645C5.99374 12.4052 5.09471 13.844 4.96913 15.4616C6.30516 16.7659 8.09454 17.5121 10.0001 17.5121C11.9056 17.5121 13.695 16.766 15.0315 15.4618C14.9059 13.8442 14.0066 12.4053 12.6372 11.5645C11.8964 12.1399 10.984 12.4539 10.0005 12.4539Z"/></svg>