<svg width="22" height="21" viewBox="0 0 22 21" fill="none" xmlns="http://www.w3.org/2000/svg">
<path fill-rule="evenodd" clip-rule="evenodd" d="M13.9081 11.5961C13.6779 11.5116 13.5105 11.4689 13.3431 11.7233C13.1756 11.978 12.6945 12.5502 12.5481 12.7197C12.4014 12.8895 12.2551 12.9108 12.0042 12.7836C11.7529 12.6564 10.9439 12.3879 9.98479 11.5222C9.23867 10.8484 8.7347 10.0161 8.58836 9.76178C8.44166 9.50744 8.57256 9.3696 8.6982 9.24279C8.81121 9.12912 8.94913 8.9462 9.07477 8.79771C9.20042 8.64923 9.24218 8.54337 9.32606 8.37393C9.40958 8.20414 9.36782 8.05603 9.305 7.92851C9.24218 7.80134 8.73997 6.55061 8.5308 6.04158C8.3269 5.54606 8.12019 5.61319 7.96612 5.60538C7.81977 5.59792 7.65202 5.59651 7.48461 5.59651C7.31756 5.59651 7.04522 5.66009 6.815 5.91443C6.58512 6.16876 5.93621 6.78364 5.93621 8.03472C5.93621 9.28543 6.83605 10.4939 6.96169 10.6633C7.08698 10.8331 8.73224 13.3999 11.251 14.5007C11.8497 14.7625 12.3176 14.9188 12.6822 15.0361C13.2837 15.2296 13.8312 15.2023 14.2636 15.1369C14.7462 15.0638 15.7492 14.522 15.9583 13.9285C16.1675 13.3346 16.1675 12.8259 16.105 12.7197C16.0419 12.6138 15.8745 12.5502 15.6235 12.423C15.3726 12.2959 14.1383 11.6814 13.9081 11.5961ZM6.78797 17.5758L6.483 17.3929L3.32197 18.2323L4.16566 15.1124L3.96702 14.7927C3.13105 13.4468 2.68956 11.8913 2.69026 10.2939C2.69201 5.63309 6.43878 1.84116 11.0457 1.84116C13.2767 1.84187 15.3737 2.72211 16.9505 4.32023C18.5273 5.91799 19.3952 8.04217 19.3945 10.3006C19.3924 14.9618 15.6456 18.7544 11.0422 18.7544C9.54049 18.7537 8.07035 18.3463 6.78797 17.5758ZM11.0422 0.123322C5.50384 0.123322 0.995865 4.68574 0.993408 10.2932C0.993057 12.086 1.45561 13.8358 2.33475 15.3781L0.90918 20.6485L6.23628 19.234C7.70396 20.0443 9.35659 20.4716 11.0384 20.4719C16.5806 20.4719 21.0886 15.9092 21.091 10.3014C21.0921 7.5836 20.0476 5.0285 18.1507 3.10606C16.2531 1.18363 13.7301 0.124388 11.0422 0.123322Z" fill="#212121"/>
</svg>
