<svg width="21" height="21" viewBox="0 0 21 21" fill="none" xmlns="http://www.w3.org/2000/svg">
<path fill-rule="evenodd" clip-rule="evenodd" d="M13.0292 11.499C12.7989 11.4144 12.6315 11.3719 12.4641 11.6262C12.2967 11.8809 11.8156 12.4531 11.6692 12.6226C11.5225 12.7924 11.3762 12.8138 11.1253 12.6866C10.874 12.5594 10.065 12.2909 9.10588 11.4252C8.35976 10.7514 7.85579 9.91899 7.70945 9.66466C7.56275 9.41032 7.69365 9.27255 7.81929 9.14574C7.9323 9.03208 8.07022 8.84908 8.19586 8.70059C8.3215 8.55212 8.36327 8.44632 8.44715 8.27688C8.53067 8.10708 8.48891 7.95898 8.42609 7.83145C8.36327 7.70429 7.86106 6.45355 7.65189 5.94451C7.44799 5.44899 7.24128 5.5161 7.08721 5.50827C6.94086 5.50082 6.77311 5.49937 6.6057 5.49937C6.43865 5.49937 6.16631 5.56296 5.93609 5.81729C5.70621 6.07163 5.0573 6.68658 5.0573 7.93766C5.0573 9.18838 5.95714 10.3968 6.08278 10.5662C6.20807 10.736 7.85333 13.3029 10.3721 14.4037C10.9708 14.6655 11.4387 14.8217 11.8033 14.9389C12.4048 15.1325 12.9523 15.1052 13.3847 15.0399C13.8672 14.9667 14.8703 14.4249 15.0794 13.8314C15.2886 13.2374 15.2886 12.7288 15.2261 12.6226C15.163 12.5167 14.9956 12.4531 14.7446 12.3259C14.4937 12.1988 13.2594 11.5842 13.0292 11.499ZM5.90906 17.4788L5.60409 17.2959L2.44307 18.1353L3.28675 15.0154L3.08811 14.6956C2.25215 13.3497 1.81065 11.7942 1.81135 10.1968C1.81311 5.53598 5.55987 1.744 10.1668 1.744C12.3978 1.74471 14.4947 2.62495 16.0716 4.22308C17.6484 5.82086 18.5163 7.94514 18.5156 10.2036C18.5135 14.8648 14.7667 18.6574 10.1633 18.6574C8.66158 18.6567 7.19144 18.2493 5.90906 17.4788ZM10.1633 0.0261841C4.62493 0.0261841 0.116959 4.58863 0.114502 10.1961C0.114151 11.9889 0.576705 13.7387 1.45584 15.2811L0.0302734 20.5515L5.35737 19.1369C6.82505 19.9472 8.47768 20.3746 10.1594 20.375C15.7017 20.375 20.2096 15.8122 20.2121 10.2043C20.2131 7.48654 19.1687 4.93145 17.2718 3.00901C15.3742 1.08656 12.8512 0.0272446 10.1633 0.0261841Z" fill="#F5F5F5"/>
</svg>
